# xmcd
#
# Track frame offsets: 
#        150
#        11091
#        20612
#        31294
#        40879
#        48580
#        65847
#        77626
#        90619
#        104379
#        114777
#        128182
#        137478
#        150289
#        162609
#        174316
#        185155
#        199626
#        221020
#        232239
#        243518
#        258804
#        279744
#        290791
#        298934
#        307024
#        319728
#        328457
#        346104
#
# Disc length: 4690 seconds
#
# Revision: 1
# Processed by: cddbd v1.5.1PL0 Copyright (c) Steve Scherf et al.
# Submitted via: ExactAudioCopy v0.90b4
#
DISCID=ba12501d
DTITLE=Toni Iordache - A virtuoso of the cimbalom
DYEAR=1996
DGENRE=Folklore
TTITLE0=Calusul
TTITLE1=Canta cucul primavara
TTITLE2=Hora moldoveneasca
TTITLE3=Variatiuni la cantecul "Asa beau oamenii buni"
TTITLE4=Geamparalele de la Babadag
TTITLE5=Aseara fusei la mandra
TTITLE6=Ca la Breaza
TTITLE7=Mandruto, de dorul tau
TTITLE8=Cantec la imbracatul miresei
TTITLE9=Hora de la Rudari
TTITLE10=Joc de doi
TTITLE11=Sarba lui Floarea Cioaca
TTITLE12=Jocul ciocanelelor
TTITLE13=Nuneasca de la Craiova
TTITLE14=Cantec de ascultare si Breaza
TTITLE15=Hora de la Popesti
TTITLE16=Sarba dobrogeana
TTITLE17=Hora
TTITLE18=Geamparalele lui Haidim
TTITLE19=Hora dinspre ziua din Bolintin
TTITLE20=Sarba de la Medgidia
TTITLE21=Cantec si Breaza ca la Fantanele
TTITLE22=Lelita Floare
TTITLE23=Mai neicuta, mai gorjene
TTITLE24=Braul pe sase ca la Muscel
TTITLE25=Pasarica de sub nori
TTITLE26=Hora lautarilor
TTITLE27=Pasarea si pitulicu
TTITLE28=De doi
EXTD=
EXTT0=
EXTT1=
EXTT2=
EXTT3=
EXTT4=
EXTT5=
EXTT6=
EXTT7=
EXTT8=
EXTT9=
EXTT10=
EXTT11=
EXTT12=
EXTT13=
EXTT14=
EXTT15=
EXTT16=
EXTT17=
EXTT18=
EXTT19=
EXTT20=
EXTT21=
EXTT22=
EXTT23=
EXTT24=
EXTT25=
EXTT26=
EXTT27=
EXTT28=
PLAYORDER=
